# xmcd CD database file
#
# Track frame offsets:
#	187
#	19587
#	38187
#	55762
#	75925
#	97517
#	120765
#	139277
#	161592
#	181527
#	201160
#	230437
#	233570
#	235982
#	239342
#	242682
#	246205
#	249910
#	252027
#	254597
#	258020
#	261720
#
# Disc length: 3526 seconds
#
# Revision: 3
# Processed by: cddbd v1.5PL3 Copyright (c) Steve Scherf et al.
# Submitted via: CDex 1.50Beta7
#
DISCID=0d0dc416
DTITLE=Various Artist - 逮捕しちゃうぞ 限定解除ソングコレクション [CD2]
DYEAR=1996
DGENRE=Anime
TTITLE0=玉川紗己子 - Power!!!
TTITLE1=平松晶子 - Tuned by Me
TTITLE2=堀秀行 - 愛と正義のストライクメドレー
TTITLE3=Tokyo Policewoman Duo - Catch your Dream〜悲しみに負けないで〜
TTITLE4=Tokyo Policewoman Duo - We are Policewoman
TTITLE5=玉川紗己子・正宗一成 - 続・墨東恋物語 ('94墨東署忘年会ライブバージョン)
TTITLE6=小桜エツ子 - 噂がいっぱい
TTITLE7=玉川紗己子・平松晶子 - 100mphの勇気
TTITLE8=玉川紗己子・平松晶子 - 500円／h の青春
TTITLE9=Tokyo Policewoman Duo - 待たせて、ゴメンね
TTITLE10=玉川紗己子・他 - やさしさに Thank You
TTITLE11=Tokyo Policewoman Duo - 楽曲解説 1
TTITLE12=Tokyo Policewoman Duo - 楽曲解説 2
TTITLE13=Tokyo Policewoman Duo - 楽曲解説 3
TTITLE14=Tokyo Policewoman Duo - 楽曲解説 4
TTITLE15=Tokyo Policewoman Duo - 楽曲解説 5
TTITLE16=Tokyo Policewoman Duo - 楽曲解説 6
TTITLE17=Tokyo Policewoman Duo - 楽曲解説 7
TTITLE18=Tokyo Policewoman Duo - 楽曲解説 8
TTITLE19=Tokyo Policewoman Duo - 楽曲解説 9
TTITLE20=Tokyo Policewoman Duo - 楽曲解説 10
TTITLE21=Tokyo Policewoman Duo - 楽曲解説 11
EXTD=YEAR: 1996
EXTT0=
EXTT1=
EXTT2=
EXTT3=
EXTT4=
EXTT5=
EXTT6=
EXTT7=
EXTT8=
EXTT9=
EXTT10=
EXTT11=
EXTT12=
EXTT13=
EXTT14=
EXTT15=
EXTT16=
EXTT17=
EXTT18=
EXTT19=
EXTT20=
EXTT21=
PLAYORDER=
